<svg version="1.0" xmlns="http://www.w3.org/2000/svg"
 viewBox="0 0 521.000000 700.000000"
 preserveAspectRatio="xMidYMid meet">
<g transform="translate(0.000000,700.000000) scale(0.100000,-0.100000)"
fill="currentColor" stroke="none">
<path d="M310 6940 c-110 -10 -159 -27 -201 -69 -51 -51 -62 -100 -56 -241 8
-184 41 -248 172 -338 40 -27 76 -60 84 -77 9 -19 21 -114 33 -250 30 -368 64
-560 140 -785 77 -227 269 -583 427 -793 204 -270 512 -555 811 -749 99 -64
127 -92 136 -135 5 -26 0 -37 -31 -71 -20 -23 -80 -71 -134 -107 -150 -101
-254 -188 -407 -340 -251 -250 -416 -479 -576 -800 -194 -386 -320 -856 -344
-1276 -4 -68 -12 -123 -20 -136 -8 -12 -49 -40 -93 -63 -91 -47 -120 -82 -147
-175 -24 -86 -25 -274 -1 -337 21 -55 71 -102 124 -119 77 -24 676 -30 2638
-26 1765 3 2019 6 2086 19 90 19 128 37 163 78 36 44 41 68 40 210 0 103 -4
135 -22 181 -30 75 -82 134 -151 168 -63 33 -94 62 -111 106 -7 17 -16 113
-21 215 -5 102 -11 196 -13 210 -3 14 -10 63 -16 110 -38 286 -121 545 -273
855 -146 298 -335 563 -567 795 -105 106 -193 177 -335 270 -159 105 -218 153
-239 192 -37 68 -10 107 153 217 388 263 606 483 823 831 145 233 288 560 362
830 52 188 73 325 81 523 15 375 14 373 99 429 108 72 138 109 171 208 25 73
25 225 2 296 -20 57 -65 109 -117 133 -32 15 -246 16 -2315 17 -1254 1 -2314
-2 -2355 -6z m4487 -220 c99 -22 137 -86 93 -157 -30 -49 -58 -62 -163 -73
-61 -6 -872 -10 -2204 -10 -2330 -1 -2172 -5 -2228 62 -40 48 -29 119 24 155
36 25 233 27 2521 31 1390 2 1919 0 1957 -8z m-587 -459 c231 -4 342 -10 356
-19 12 -6 27 -26 33 -44 31 -87 22 -354 -20 -594 -82 -474 -292 -941 -569
-1264 -133 -156 -269 -272 -530 -452 -187 -129 -257 -190 -292 -254 -40 -74
-44 -129 -18 -215 28 -93 61 -127 227 -231 73 -46 179 -120 235 -165 125 -99
381 -357 466 -470 205 -271 367 -615 457 -973 57 -226 94 -491 91 -657 -1 -93
-3 -104 -25 -127 -14 -15 -42 -31 -63 -37 -32 -8 -2746 -25 -3638 -22 -339 1
-336 -1 -327 251 22 585 253 1168 649 1642 175 208 346 362 594 535 188 130
256 220 256 337 0 123 -50 179 -319 359 -109 72 -236 161 -283 197 -180 139
-367 353 -550 633 -93 142 -170 295 -228 454 -150 414 -224 1043 -129 1098 15
8 97 14 252 18 334 8 2981 8 3375 0z m636 -5739 c65 -35 95 -130 59 -186 -40
-60 126 -56 -2282 -63 -2054 -6 -2210 -5 -2240 11 -67 34 -86 140 -35 196 54
61 -92 58 2292 55 1501 -1 2192 -5 2206 -13z"/>
<path d="M2507 5629 c-148 -10 -274 -29 -557 -85 -124 -25 -274 -51 -334 -59
-131 -16 -161 -32 -161 -90 0 -30 6 -42 28 -58 24 -19 48 -22 250 -29 122 -5
348 -17 502 -29 533 -39 727 -37 1170 12 146 16 235 19 470 17 l290 -3 0 -45
c-1 -46 -15 -74 -202 -398 -92 -159 -238 -315 -428 -457 -32 -23 -126 -85
-209 -136 -321 -200 -477 -344 -559 -517 -51 -110 -36 -202 34 -202 32 0 54
25 115 130 74 127 142 184 544 455 210 142 249 173 366 290 303 302 460 599
458 865 -1 101 -10 130 -48 155 -13 9 -214 55 -447 102 l-424 87 -370 2 c-203
1 -423 -2 -488 -7z"/>
<path d="M920 5385 c-21 -26 -24 -108 -5 -192 52 -238 243 -542 504 -804 160
-160 249 -230 474 -371 275 -172 386 -271 449 -399 91 -187 118 -250 127 -299
41 -222 59 -531 63 -1135 3 -393 8 -383 -182 -442 -143 -45 -593 -201 -719
-250 -121 -47 -284 -130 -387 -199 -94 -62 -188 -158 -238 -243 -39 -67 -69
-148 -61 -162 7 -10 107 -11 145 0 15 4 36 27 58 64 42 73 128 144 270 226
199 113 385 187 877 349 196 64 202 66 310 66 l110 1 210 -72 c116 -39 273
-88 350 -108 443 -115 553 -170 765 -386 l125 -126 62 -6 c57 -5 62 -3 67 17
16 63 -43 175 -149 282 -94 94 -199 167 -344 240 -171 84 -285 123 -721 244
-214 59 -322 107 -350 152 -17 29 -18 70 -23 697 -5 734 -5 739 -68 862 -18
35 -55 123 -84 195 -63 160 -101 218 -209 322 -107 102 -207 176 -401 297
-197 123 -258 168 -368 273 -235 227 -357 412 -487 739 -62 158 -79 183 -125
183 -18 0 -38 -7 -45 -15z"/>
</g>
</svg>
