<svg version="1.0" xmlns="http://www.w3.org/2000/svg"
 viewBox="0 0 569.000000 700.000000"
 preserveAspectRatio="xMidYMid meet">
<g transform="translate(0.000000,700.000000) scale(0.100000,-0.100000)"
fill="currentColor" stroke="none">
<path d="M5150 6928 c-39 -20 -50 -34 -87 -108 -123 -246 -299 -824 -462
-1518 -58 -244 -61 -265 -46 -282 14 -16 14 -26 -5 -121 -46 -224 -293 -1174
-421 -1619 -17 -58 -66 -213 -109 -345 -144 -439 -183 -646 -131 -698 6 -6 48
-24 94 -39 52 -18 68 -26 42 -22 -22 3 -66 16 -98 29 l-58 24 -9 -22 c-4 -12
-22 -98 -40 -192 -66 -360 -146 -672 -243 -950 -67 -193 -85 -430 -44 -597 11
-45 12 -79 4 -160 -5 -57 -11 -104 -12 -106 -2 -2 -29 10 -61 26 -107 53 -291
122 -381 142 -97 22 -241 26 -313 9 -63 -14 -108 -51 -116 -95 -5 -27 -10 -34
-23 -29 -88 34 -368 89 -536 105 -251 23 -325 11 -353 -61 -15 -38 -18 -40
-46 -35 -146 30 -224 39 -372 42 -195 5 -212 -1 -172 -52 21 -26 21 -27 3 -20
-41 16 -234 55 -325 66 -209 25 -486 9 -682 -40 -88 -22 -109 -33 -92 -50 7
-7 19 -8 38 0 38 14 209 48 291 57 136 15 411 7 535 -15 140 -26 271 -63 361
-103 77 -33 110 -39 116 -21 3 7 -14 20 -44 33 -78 33 -93 41 -131 76 l-37 32
129 1 c122 0 293 -19 381 -42 22 -5 59 -28 83 -50 50 -46 136 -89 227 -113 60
-17 66 -17 90 -1 14 9 25 23 25 32 0 19 -116 73 -251 117 -92 30 -99 34 -99
59 0 48 29 58 172 58 281 0 677 -81 759 -155 44 -39 144 -74 162 -56 21 21
-25 64 -99 91 -67 25 -69 27 -69 59 0 50 35 71 137 84 143 18 313 -21 543
-125 61 -27 125 -56 143 -64 l33 -14 54 115 c34 72 73 137 103 173 93 107 157
225 206 380 13 43 52 206 85 363 89 421 137 617 213 882 22 78 28 111 20 119
-8 8 -4 20 12 42 56 73 117 247 161 456 67 320 93 426 171 713 113 411 222
771 360 1186 63 189 114 344 114 346 0 1 -41 6 -92 10 -143 11 -348 73 -348
104 0 16 9 14 77 -14 75 -30 243 -65 315 -65 l53 0 69 218 c70 219 93 278 81
212 -30 -179 -77 -542 -78 -610 -2 -84 -2 -85 24 -88 33 -4 43 9 75 94 57 153
301 1086 370 1419 31 149 37 202 38 305 1 105 -2 130 -17 153 -23 35 -74 67
-108 67 -22 0 -25 3 -21 28 13 92 -91 174 -238 188 -45 4 -63 1 -100 -18z
m191 -38 c78 -29 109 -63 109 -120 0 -37 -5 -51 -26 -69 -47 -41 -56 -81 -59
-266 -5 -326 -57 -576 -230 -1105 -40 -124 -81 -251 -90 -282 -9 -32 -22 -58
-28 -58 -7 0 -55 7 -107 15 -118 17 -216 47 -264 80 -20 14 -41 25 -47 25 -6
0 -8 8 -5 18 3 9 28 114 57 232 201 841 410 1472 507 1532 37 24 120 23 183
-2z m219 -219 c79 -56 56 -262 -95 -876 -86 -346 -238 -906 -271 -994 -14 -39
-30 -71 -35 -71 -12 0 -13 -14 16 200 56 429 112 743 185 1045 59 246 103 483
115 625 4 41 8 81 11 88 5 16 38 8 74 -17z m-117 -43 c-10 -94 -35 -263 -39
-267 -2 -2 -4 48 -4 112 0 84 5 128 16 157 21 52 33 51 27 -2z m-777 -1664
c68 -30 218 -64 287 -64 26 0 47 -3 47 -8 0 -4 -36 -115 -80 -247 -216 -643
-455 -1485 -520 -1830 -53 -281 -131 -511 -198 -585 l-37 -40 -70 15 c-94 20
-162 44 -180 62 -40 40 4 246 140 663 132 402 446 1568 526 1953 12 59 23 107
24 107 2 0 29 -12 61 -26z m-711 -2804 c64 -22 174 -27 207 -9 31 17 39 -2 22
-56 -63 -210 -164 -628 -234 -975 -68 -337 -128 -486 -257 -641 -32 -39 -73
-98 -90 -132 l-33 -62 6 60 c4 38 0 89 -11 140 -21 105 -21 305 0 410 9 44 44
159 76 255 71 207 140 481 199 785 45 233 47 245 53 245 2 0 30 -9 62 -20z
m-1980 -2023 c101 -42 109 -63 12 -31 -59 19 -167 71 -167 80 0 10 51 -6 155
-49z"/>
</g>
</svg>
