<svg version="1.0" xmlns="http://www.w3.org/2000/svg"
 viewBox="0 0 544.000000 700.000000"
 preserveAspectRatio="xMidYMid meet">
<g transform="translate(0.000000,700.000000) scale(0.100000,-0.100000)"
fill="currentColor" stroke="none">
<path d="M2560 6954 c-144 -10 -291 -26 -398 -44 -248 -42 -601 -145 -667
-195 -22 -16 -72 -105 -185 -326 l-155 -304 -85 -7 c-47 -3 -125 -15 -173 -27
l-89 -21 -30 25 c-36 30 -72 32 -115 5 -51 -31 -365 -260 -395 -288 -30 -28
-38 -84 -18 -123 9 -15 5 -28 -18 -62 -74 -107 -141 -273 -168 -414 -25 -132
-15 -375 20 -501 34 -124 85 -231 125 -264 53 -45 125 -58 191 -35 19 7 166
108 326 225 161 117 295 212 299 212 4 0 14 -9 24 -21 16 -20 13 -24 -134
-172 -83 -84 -185 -197 -227 -253 -438 -577 -611 -1278 -492 -1994 83 -500
334 -994 688 -1353 l86 -87 -184 -243 c-154 -204 -185 -251 -196 -296 -43
-180 87 -347 269 -344 75 1 125 19 176 65 20 17 111 122 202 232 91 111 174
209 184 220 17 18 19 18 91 -21 377 -206 833 -313 1268 -300 398 13 712 90
1068 263 84 41 154 74 156 74 2 0 85 -98 184 -218 99 -120 197 -233 216 -250
53 -47 102 -65 177 -65 182 -2 312 164 269 344 -11 45 -42 92 -197 297 l-184
244 93 97 c191 195 327 390 454 646 280 567 338 1202 168 1823 -118 430 -369
846 -703 1164 l-110 104 22 26 22 26 299 -219 c278 -203 336 -239 391 -239 41
0 97 22 129 51 40 35 92 152 128 285 20 78 23 112 23 269 0 153 -4 193 -23
268 -28 113 -71 216 -133 318 -38 64 -46 85 -39 99 15 28 12 83 -5 107 -14 21
-376 288 -422 312 -35 18 -69 13 -102 -15 l-31 -25 -87 22 c-49 12 -129 24
-180 28 l-92 6 -149 300 c-108 217 -158 308 -181 327 -56 48 -421 156 -663
197 -201 34 -553 56 -718 45z m585 -108 c294 -42 704 -155 751 -207 9 -10 77
-140 150 -289 l132 -269 -36 -6 c-20 -4 -59 -11 -85 -16 -26 -5 -52 -9 -58 -9
-5 0 -59 101 -119 225 -123 255 -102 232 -265 282 -266 80 -518 122 -800 130
-366 11 -676 -33 -1042 -146 l-101 -31 -117 -228 c-65 -125 -118 -228 -119
-229 -2 -2 -180 28 -183 31 -3 3 272 544 286 559 16 20 237 93 406 136 141 35
265 57 430 76 158 18 615 13 770 -9z m-57 -261 c150 -19 348 -62 500 -108 62
-19 115 -37 117 -39 2 -2 49 -96 104 -208 l100 -205 -98 -46 c-164 -78 -326
-203 -357 -276 -20 -47 -17 -117 6 -163 24 -48 39 -60 393 -315 152 -110 276
-202 276 -205 0 -3 -8 -15 -19 -28 l-19 -22 -121 69 c-287 165 -640 277 -980
312 l-120 13 0 172 0 172 69 4 c115 6 181 71 181 180 0 67 -24 114 -79 153
l-43 30 -253 3 c-273 3 -314 -1 -365 -44 -44 -37 -60 -75 -60 -140 0 -113 73
-184 188 -184 l62 0 0 -173 0 -173 -116 -12 c-348 -37 -699 -149 -995 -318
l-111 -63 -19 22 c-10 12 -18 24 -18 27 0 3 124 95 276 205 152 110 298 217
326 238 81 64 107 156 68 242 -41 91 -268 254 -423 304 -21 7 -38 15 -38 18 0
20 207 406 222 414 61 33 351 106 533 134 239 37 567 41 813 10z m-2286 -642
c18 2 69 14 112 26 322 86 732 -22 956 -254 39 -40 45 -51 45 -89 0 -30 -6
-51 -20 -66 -37 -41 -1505 -1101 -1537 -1111 -45 -12 -96 15 -125 66 -34 59
-80 208 -93 304 -17 113 -8 293 20 401 27 103 94 251 157 342 l46 67 -22 37
c-19 32 -20 39 -8 51 8 8 97 75 198 149 l184 133 27 -31 c22 -25 32 -30 60
-25z m3723 26 c132 -36 143 -36 173 0 l27 30 185 -135 c102 -74 191 -141 199
-149 12 -11 10 -18 -8 -43 -11 -17 -21 -34 -21 -38 0 -4 22 -42 49 -83 181
-277 229 -608 130 -906 -17 -50 -40 -108 -52 -130 -27 -48 -82 -79 -122 -69
-28 7 -1477 1054 -1530 1105 -24 24 -30 38 -30 74 0 39 5 50 45 90 126 131
354 243 556 275 98 15 307 4 399 -21z m-1514 -8 c46 -47 35 -127 -22 -157 -36
-18 -497 -21 -532 -3 -63 32 -77 111 -28 160 l29 29 262 0 262 0 29 -29z
m-231 -421 l0 -170 -65 0 -65 0 0 163 c0 90 3 167 7 170 3 4 33 7 65 7 l58 0
0 -170z m343 -289 c530 -94 967 -321 1343 -696 488 -487 743 -1124 729 -1820
-13 -629 -301 -1267 -776 -1721 -230 -219 -521 -406 -817 -523 -566 -225
-1215 -223 -1792 5 -571 227 -1043 663 -1314 1218 -118 240 -190 473 -233 753
-24 158 -24 539 0 691 106 662 445 1232 967 1626 365 275 774 434 1260 490 19
2 143 3 275 1 190 -2 265 -7 358 -24z m-1863 -306 c7 -14 11 -26 9 -28 -124
-97 -129 -100 -150 -81 -10 9 -19 21 -19 26 0 8 130 108 141 108 3 0 12 -11
19 -25z m3006 -21 c35 -25 67 -50 70 -56 4 -5 -3 -19 -13 -30 -20 -20 -20 -20
-91 32 -71 52 -71 52 -54 76 9 13 18 24 20 24 2 0 32 -21 68 -46z m-3211
-4064 c9 -15 129 -109 223 -174 45 -32 82 -59 82 -61 0 -1 -83 -103 -185 -226
-203 -245 -231 -269 -317 -269 -123 0 -220 121 -189 237 10 36 112 180 298
421 63 81 76 91 88 72z m3532 -224 c189 -249 203 -276 183 -355 -23 -92 -96
-151 -188 -151 -86 0 -114 23 -317 270 -102 124 -185 227 -185 230 0 3 17 15
38 26 48 28 232 167 257 194 10 11 23 19 29 17 6 -2 89 -106 183 -231z"/>
<path d="M444 5442 c-19 -12 -52 -86 -81 -179 -24 -79 -27 -104 -27 -248 -1
-140 2 -170 23 -244 13 -46 33 -93 43 -103 18 -18 22 -18 41 -5 27 18 26 39
-4 132 -18 59 -22 93 -22 215 -1 151 7 192 69 353 14 36 16 51 8 65 -13 19
-34 26 -50 14z"/>
<path d="M4952 5438 c-17 -17 -15 -53 8 -97 31 -61 61 -189 67 -287 6 -99 -6
-190 -39 -298 l-22 -69 23 -18 c34 -28 57 -10 80 64 63 206 50 462 -34 646
-33 70 -56 86 -83 59z"/>
<path d="M2446 4864 c-591 -80 -1118 -407 -1447 -898 -298 -443 -411 -946
-333 -1476 66 -447 283 -866 615 -1186 422 -406 1007 -619 1582 -574 982 76
1766 803 1913 1775 19 131 22 394 5 540 -113 946 -854 1698 -1794 1820 -143
18 -404 18 -541 -1z m472 -74 c692 -74 1292 -494 1592 -1114 138 -284 200
-561 200 -886 0 -749 -427 -1433 -1106 -1773 -198 -99 -448 -174 -662 -197
-141 -16 -444 -8 -565 15 -834 154 -1472 795 -1623 1630 -23 124 -34 384 -23
510 93 1026 945 1815 1972 1824 65 1 161 -4 215 -9z"/>
<path d="M2697 4607 c-16 -11 -17 -33 -15 -221 3 -186 5 -210 21 -220 12 -8
22 -8 35 0 15 10 17 34 20 220 2 188 1 210 -15 221 -9 7 -20 13 -23 13 -3 0
-14 -6 -23 -13z"/>
<path d="M1720 4310 c-13 -24 -22 -6 107 -207 83 -130 110 -163 127 -163 25 0
46 17 46 37 0 7 -49 88 -109 180 -89 137 -113 169 -134 171 -18 2 -29 -3 -37
-18z"/>
<path d="M3605 4246 c-30 -47 -80 -124 -110 -171 -30 -47 -55 -91 -55 -98 0
-20 21 -37 46 -37 31 0 237 316 232 357 -2 22 -9 29 -30 31 -24 3 -33 -6 -83
-82z"/>
<path d="M1140 3685 c-26 -32 -5 -50 172 -148 182 -102 209 -110 223 -66 4 11
2 26 -5 34 -17 21 -337 195 -358 195 -11 0 -25 -7 -32 -15z"/>
<path d="M4086 3610 c-87 -49 -165 -95 -173 -103 -19 -19 -9 -54 18 -62 23 -8
367 177 376 202 9 23 -10 48 -38 50 -15 2 -85 -32 -183 -87z"/>
<path d="M1923 3371 c-49 -23 -73 -62 -73 -121 0 -58 27 -83 354 -329 239
-179 282 -216 307 -259 30 -54 64 -82 118 -100 93 -32 197 5 253 89 33 49 48
59 458 285 234 129 433 244 443 255 27 33 23 97 -10 131 -53 55 -63 51 -501
-193 -314 -174 -400 -218 -412 -210 -91 67 -133 78 -214 58 l-60 -14 -260 195
c-257 193 -315 232 -346 232 -8 0 -34 -9 -57 -19z m328 -262 c140 -105 258
-194 262 -198 6 -6 -11 -57 -29 -89 -4 -6 -539 399 -548 415 -13 24 10 63 37
63 16 0 114 -68 278 -191z m1469 147 c0 -11 -785 -456 -805 -456 -3 0 -5 8 -5
18 0 12 111 78 393 234 216 119 398 217 405 218 6 0 12 -6 12 -14z m-929 -395
c34 -34 39 -44 39 -86 0 -61 -24 -100 -77 -126 -73 -35 -148 -4 -178 75 -22
56 -9 102 41 146 29 25 43 30 86 30 45 0 54 -4 89 -39z"/>
<path d="M4286 2873 c-116 -2 -184 -8 -193 -15 -8 -6 -13 -23 -11 -37 l3 -26
203 -3 c128 -1 210 1 222 8 40 21 13 85 -32 78 -7 -1 -94 -4 -192 -5z"/>
<path d="M970 2811 c-48 -5 -55 -9 -58 -29 -2 -13 2 -30 10 -39 11 -14 37 -15
212 -9 119 4 205 11 213 18 16 13 17 40 1 56 -13 13 -268 15 -378 3z"/>
<path d="M1310 2070 c-149 -83 -175 -101 -178 -123 -2 -18 3 -29 18 -37 19
-10 45 1 201 86 109 60 181 105 185 117 6 19 -21 58 -40 56 -6 0 -90 -45 -186
-99z"/>
<path d="M3916 2154 c-36 -36 -24 -48 124 -131 204 -115 228 -125 250 -113 20
11 26 36 12 56 -10 16 -348 204 -366 204 -2 0 -12 -7 -20 -16z"/>
<path d="M1917 1638 c-36 -48 -193 -290 -199 -308 -9 -24 11 -50 38 -50 21 0
40 24 131 163 58 89 108 170 111 180 6 22 -15 47 -39 47 -10 0 -29 -15 -42
-32z"/>
<path d="M3450 1656 c-7 -9 -10 -24 -8 -33 3 -10 53 -91 111 -181 99 -151 109
-163 135 -160 22 2 27 8 29 33 2 23 -21 65 -105 190 -109 163 -133 185 -162
151z"/>
<path d="M2685 1428 c-3 -8 -4 -105 -3 -217 3 -181 5 -205 21 -215 12 -8 22
-8 35 0 15 10 17 32 17 225 l0 214 -33 3 c-20 2 -34 -2 -37 -10z"/>
</g>
</svg>
