<svg version="1.0" xmlns="http://www.w3.org/2000/svg"
 viewBox="0 0 184.000000 1391.000000"
 preserveAspectRatio="xMidYMid meet">
<g transform="translate(0.000000,1391.000000) scale(0.100000,-0.100000)"
fill="currentColor" stroke="none">
<path d="M894 13901 c-133 -34 -214 -127 -240 -273 -10 -60 28 -170 78 -225
64 -69 117 -95 203 -101 97 -6 163 16 228 77 69 64 90 109 95 207 4 72 1 89
-20 136 -34 74 -79 122 -143 153 -58 29 -147 40 -201 26z"/>
<path d="M827 13212 c-76 -80 -14 -204 95 -189 48 6 73 28 89 74 14 43 5 80
-29 116 -21 23 -34 27 -77 27 -43 0 -56 -4 -78 -28z"/>
<path d="M876 12923 c-32 -110 -47 -343 -25 -385 14 -27 -2 -38 -55 -38 -155
0 -455 -163 -583 -316 -101 -121 -176 -281 -202 -428 -14 -76 -14 -252 -1
-334 31 -191 110 -342 255 -488 178 -179 358 -259 610 -271 273 -13 529 87
707 275 79 85 114 134 166 238 61 120 83 215 89 380 5 130 3 150 -21 244 -29
111 -76 222 -125 294 -17 24 -31 48 -31 53 0 11 -138 137 -208 189 -30 23 -88
58 -128 78 -75 38 -242 86 -299 86 -18 0 -53 3 -79 6 -46 7 -46 7 -31 30 20
32 20 176 -2 304 -15 96 -26 119 -37 83z m250 -492 c100 -28 184 -61 184 -71
0 -17 -128 -71 -191 -80 -35 -5 -147 -10 -249 -10 -256 0 -410 -28 -554 -101
l-78 -40 21 30 c67 94 268 221 421 265 139 40 318 43 446 7z m315 -150 c35
-27 74 -60 87 -74 l24 -25 -29 -31 c-53 -58 -257 -158 -418 -204 -54 -16 -161
-35 -266 -47 -211 -24 -298 -41 -381 -76 -121 -51 -334 -163 -375 -199 l-43
-36 6 48 c8 71 22 149 34 193 17 65 143 143 280 174 61 14 312 44 555 66 235
22 326 59 395 163 21 32 42 66 45 77 4 11 10 20 14 20 4 0 37 -22 72 -49z
m264 -326 c46 -98 80 -208 71 -231 -10 -27 -133 -75 -249 -99 -62 -12 -178
-28 -258 -35 -148 -12 -324 -35 -522 -69 -61 -11 -155 -25 -207 -31 -197 -23
-337 -43 -404 -56 -122 -25 -94 11 40 52 44 13 137 47 205 75 68 29 145 60
171 70 37 14 94 21 246 29 300 15 430 45 549 129 89 64 232 198 263 249 23 37
26 40 39 24 7 -9 33 -57 56 -107z m82 -492 c-3 -10 -11 -43 -17 -73 -22 -96
-22 -97 -200 -151 -66 -21 -140 -34 -246 -44 -83 -8 -186 -22 -230 -30 -44 -9
-188 -21 -327 -26 -212 -9 -268 -9 -381 5 -73 9 -155 16 -183 16 l-50 0 -23
50 c-13 27 -21 53 -17 56 3 4 63 1 132 -5 196 -17 394 -13 673 14 317 31 459
54 627 101 135 38 192 62 214 88 18 21 34 20 28 -1z m-217 -464 c-72 -85 -109
-105 -245 -129 -27 -5 -59 -14 -70 -19 -11 -6 -65 -23 -120 -38 -99 -28 -103
-28 -345 -25 -225 2 -248 4 -285 23 -43 22 -189 129 -183 134 2 1 49 -7 104
-20 205 -46 479 -59 649 -30 236 41 406 87 492 133 21 11 40 21 41 21 2 1 -15
-22 -38 -50z"/>
<path d="M880 10610 c-11 -22 -20 -59 -20 -83 l0 -44 -49 -7 c-209 -28 -412
-193 -526 -429 -65 -136 -79 -199 -80 -352 0 -109 4 -142 23 -205 77 -242 234
-422 466 -531 47 -22 108 -43 135 -46 27 -3 53 -8 59 -12 5 -3 13 -64 17 -136
l7 -130 -94 -1 c-76 -1 -104 -5 -157 -27 -121 -50 -208 -138 -257 -258 -23
-57 -25 -73 -22 -178 3 -101 6 -123 30 -174 116 -248 411 -340 646 -202 155
90 242 276 215 454 -23 151 -113 270 -255 342 l-80 40 6 37 c3 20 6 80 6 133
l0 97 48 6 c217 31 419 187 532 414 126 252 129 495 9 720 -71 134 -163 237
-285 320 -89 60 -161 90 -276 116 -26 6 -28 10 -28 59 0 46 -27 117 -45 117
-2 0 -14 -18 -25 -40z m-16 -772 c4 -315 11 -636 16 -713 4 -77 6 -142 4 -144
-10 -10 -122 24 -193 59 -179 90 -325 263 -393 466 -19 57 -23 89 -22 189 0
108 3 129 32 213 18 52 51 126 75 165 53 90 167 211 241 256 65 39 170 80 207
80 l26 1 7 -572z m217 528 c93 -38 165 -85 240 -160 117 -116 187 -241 225
-402 41 -177 -27 -411 -174 -595 -102 -129 -221 -203 -378 -234 l-31 -6 -8
705 c-4 387 -4 710 0 716 9 15 48 8 126 -24z"/>
<path d="M855 7566 c-120 -34 -231 -129 -288 -245 -31 -64 -32 -70 -32 -196
l0 -130 38 -70 c62 -113 154 -193 264 -228 82 -27 224 -23 301 7 255 100 365
392 241 638 -35 69 -122 151 -203 192 -70 35 -85 38 -174 42 -65 3 -113 -1
-147 -10z"/>
<path d="M798 6456 c-89 -31 -127 -56 -187 -121 -92 -101 -127 -221 -110 -379
12 -118 93 -242 208 -315 88 -57 244 -77 357 -47 322 86 437 492 210 743 -116
129 -312 177 -478 119z"/>
<path d="M797 5450 c-97 -31 -200 -106 -252 -185 -59 -88 -77 -158 -73 -277 3
-91 7 -111 35 -171 44 -93 119 -169 211 -215 69 -34 83 -37 179 -40 89 -4 113
-1 166 18 125 46 207 119 263 237 108 223 12 490 -216 601 -70 34 -82 37 -180
39 -58 1 -118 -2 -133 -7z"/>
<path d="M801 4368 c-97 -27 -152 -125 -130 -229 44 -203 341 -195 379 9 17
94 -48 199 -136 221 -50 13 -67 13 -113 -1z"/>
<path d="M910 3571 c-54 -11 -137 -60 -177 -104 -84 -93 -111 -238 -68 -356
25 -69 102 -154 169 -188 72 -38 198 -44 276 -14 283 108 298 506 23 636 -59
28 -160 40 -223 26z"/>
<path d="M968 2590 c-108 -19 -210 -98 -256 -200 -38 -81 -37 -202 0 -283 35
-75 114 -150 185 -177 69 -26 188 -27 258 -3 72 26 165 120 193 196 29 76 29
177 1 251 -38 102 -145 194 -245 211 -75 12 -89 13 -136 5z"/>
<path d="M983 1543 c-26 -59 -33 -279 -21 -603 6 -157 14 -289 18 -293 11 -12
29 139 60 508 20 229 7 397 -31 421 -5 3 -17 -12 -26 -33z"/>
<path d="M864 417 c-88 -34 -134 -104 -134 -204 0 -80 30 -137 94 -181 43 -28
56 -32 115 -32 55 0 75 5 117 30 145 83 135 303 -17 381 -43 22 -126 24 -175
6z"/>
</g>
</svg>
